<?xml version="1.0" encoding="UTF-8" standalone="no"?>
<!DOCTYPE svg PUBLIC "-//W3C//DTD SVG 1.1//EN"
"http://www.w3.org/Graphics/SVG/1.1/DTD/svg11.dtd">


<!-- Page 1 -->
<svg x="0" y="0" width="738" height="705" viewBox="0 0 738 705" version="1.1" xmlns="http://www.w3.org/2000/svg" xmlns:xlink="http://www.w3.org/1999/xlink"
style="display: block;margin-left: auto;margin-right: auto;">
<defs>
<clipPath id="c_1"><path d="M0,0H738V705H0Z"/></clipPath>
<style type="text/css"><![CDATA[
text { white-space: pre; }
path, image { pointer-events: none; }
text::-moz-selection {
	color: transparent;
	background: rgba(0, 106, 173, 0.4);
}
text::selection {
	color: transparent;
	background: rgba(0, 106, 173, 0.4);
}

.s1{
font-size: 131.39px;
font-family: OpenSansCondensed-Bold_i;
fill: TRANSPARENT;
}

.g0{
fill: #040503;
}
.g1{
fill: none;
stroke: #040503;
stroke-width: 38.194;
stroke-linecap: butt;
stroke-linejoin: miter;
stroke-dasharray: 101,101;
}
.g2{
fill: none;
stroke: #BF1D2C;
stroke-width: 38.194;
stroke-linecap: butt;
stroke-linejoin: miter;
stroke-dasharray: 101,101;
}
.g3{
fill: #FFFFFF;
}
.g4{
fill: none;
stroke: #BF1D2C;
stroke-width: 15.277;
stroke-linecap: butt;
stroke-linejoin: miter;
stroke-dasharray: 24,24;
}

]]></style>

<path d="M96,0V1090H299V178H580V0Z"
id="f0_1c"
transform="scale(0.001,-0.001)"/>

<path d="M424,-14c0,0,-162,0,-247,101c0,0,-85,102,-85,301v702H293V372c0,0,0,-208,138,-208c0,0,64,0,99,53c0,0,35,53,35,151v722H767V385c0,0,0,-195,-88,-297C679,88,591,-14,424,-14Z"
id="f0_1l"
transform="scale(0.001,-0.001)"/>

<path d="M445,-14c0,0,-185,0,-283,146c0,0,-99,146,-99,412c0,0,0,265,101,414c0,0,102,148,284,148c0,0,59,0,114,-17c0,0,55,-16,118,-57L612,867c0,0,-33,23,-71,42c0,0,-38,19,-83,19c0,0,-87,0,-138,-102c0,0,-50,-102,-50,-284c0,0,0,-378,198,-378c0,0,86,0,181,55V38c0,0,-80,-52,-204,-52Z"
id="f0_13"
transform="scale(0.001,-0.001)"/>

<path d="M559,0L380,466L299,385V0H96V1090H299V550l71,163l186,377H773L521,618L776,0Z"
id="f0_1b"
transform="scale(0.001,-0.001)"/>

<path d="M258,0V429L0,1090H214L359,660l145,430H717L458,437V0Z"
id="f0_1p"
transform="scale(0.001,-0.001)"/>

<path d="M455,164c0,0,184,0,184,383c0,0,0,382,-182,382c0,0,-93,0,-140,-98c0,0,-47,-97,-47,-284c0,0,0,-187,47,-285c0,0,47,-98,138,-98Zm0,-178c0,0,-189,0,-291,144C164,130,63,275,63,548c0,0,0,271,101,415c0,0,102,145,293,145c0,0,188,0,289,-145c0,0,101,-145,101,-416c0,0,0,-271,-102,-416C745,131,644,-14,455,-14Z"
id="f0_1f"
transform="scale(0.001,-0.001)"/>

<path d="M351,598c0,0,72,0,103,41c0,0,32,41,32,122c0,0,0,83,-34,119c0,0,-33,35,-102,35H299V598ZM544,0L371,423H299V0H96V1090H362c0,0,168,0,249,-80c0,0,80,-80,80,-244c0,0,0,-207,-140,-289L761,0Z"
id="f0_1i"
transform="scale(0.001,-0.001)"/>

<path d="M612,0L275,790h-9c0,0,18,-91,18,-194V0H96V1090H345L680,309h8c0,0,-14,78,-14,186v595H860V0Z"
id="f0_1e"
transform="scale(0.001,-0.001)"/>

<path d="M96,0V1090H588V915H299V655H567V480H299V178H588V0Z"
id="f0_15"
transform="scale(0.001,-0.001)"/>


</defs>
<!-- <path d="M0,0
L0,705
L738,705
L738,0 Z "
fill="#FFFFFF" stroke="none"/> -->
<g clip-path="url(#c_1)">
<path d="M696.8,354c0,175.1,-142,317.1,-317.1,317.1C204.5,671.1,62.5,529.1,62.5,354C62.5,178.8,204.5,36.9,379.7,36.9c175.1,0,317.1,141.9,317.1,317.1Z" class="g0"/>
<path d="M669,354C669,194.2,539.5,64.7,379.7,64.7C219.9,64.7,90.4,194.2,90.4,354c0,159.8,129.5,289.3,289.3,289.3C539.5,643.3,669,513.8,669,354Z" class="g1"/>
<path d="M651.5,255.1C596.9,104.9,430.9,27.5,280.7,82.2C130.6,136.8,53.2,302.8,107.8,452.9c54.7,150.2,220.7,227.6,370.8,172.9C628.8,571.2,706.2,405.2,651.5,255.1Z" class="g2"/>
<path d="M651.5,354C651.5,203.9,529.8,82.2,379.7,82.2C229.6,82.2,107.8,203.9,107.8,354c0,150.1,121.8,271.8,271.9,271.8C529.8,625.8,651.5,504.1,651.5,354Z" class="g0"/>
<path d="M640.6,354C640.6,209.9,523.8,93.1,379.7,93.1C235.6,93.1,118.8,209.9,118.8,354c0,144.1,116.8,260.9,260.9,260.9C523.8,614.9,640.6,498.1,640.6,354Z" class="g3"/>
<path d="M631.4,354c0,139,-112.7,251.7,-251.7,251.7C240.7,605.7,128,493,128,354C128,215,240.7,102.3,379.7,102.3c139,0,251.7,112.7,251.7,251.7Z" class="g0"/>
<path d="M631.4,354c0,139,-112.7,251.7,-251.7,251.7C240.7,605.7,128,493,128,354C128,215,240.7,102.3,379.7,102.3c139,0,251.7,112.7,251.7,251.7Z" class="g0"/>
<g fill="#FFFFFF" >
<use xlink:href="#f0_1c" transform="matrix(86,0,0,86,221.8,345.9)"/>
<use xlink:href="#f0_1l" transform="matrix(86,0,0,86,274.6,345.9)"/>
<use xlink:href="#f0_13" transform="matrix(86,0,0,86,348.4,345.9)"/>
<use xlink:href="#f0_1b" transform="matrix(86,0,0,86,409.3,345.9)"/>
<use xlink:href="#f0_1p" transform="matrix(86,0,0,86,476,345.9)"/>
</g>
<text x="221.8" y="345.9" class="s1">LUCKY </text>
<path d="M265.8,202.7c-2.2,1.5,-3.3,2.3,-5.5,4c-6.6,-8.7,-10,-13,-16.6,-21.7c-2.6,2,-3.8,3,-6.3,5c-1.4,-1.6,-2.1,-2.5,-3.4,-4.1c7.5,-6.3,11.4,-9.2,19.5,-14.5c1.2,1.8,1.8,2.7,2.9,4.5c-2.6,1.7,-3.9,2.6,-6.5,4.5c6.3,8.9,9.5,13.3,15.9,22.3Z" class="g3"/>
<path d="M294.2,185.8c-2.4,1.1,-3.6,1.7,-6,3l-6.6,-12.7c-3.4,1.8,-5,2.7,-8.3,4.6c2.9,5,4.3,7.4,7.2,12.4c-2.3,1.3,-3.4,2,-5.7,3.5c-7,-11.1,-10.5,-16.6,-17.5,-27.7c2.6,-1.6,4,-2.5,6.7,-4c2.6,4.4,3.9,6.7,6.6,11.2c3.3,-2,5,-3,8.4,-4.8c-2.4,-4.6,-3.6,-6.9,-6,-11.5c2.7,-1.4,4.1,-2.1,6.9,-3.5c5.7,11.8,8.6,17.7,14.3,29.5Z" class="g3"/>
<path d="M314.7,177.2c-6,2.1,-8.9,3.3,-14.8,5.9c-5.3,-11.9,-8,-17.9,-13.3,-29.9c6.8,-3,10.3,-4.4,17.3,-6.9c.7,2,1,3,1.7,5c-4,1.4,-6,2.2,-10,3.8c1.2,2.9,1.8,4.3,3,7.2c3.5,-1.5,5.3,-2.1,8.9,-3.4c.7,2,1.1,3,1.8,5c-3.5,1.2,-5.3,1.9,-8.7,3.3c1.3,3.3,2,5,3.4,8.4c3.5,-1.5,5.4,-2.1,9,-3.4c.7,2,1,3,1.7,5Z" class="g3"/>
<path d="M333.2,154.9c.8,3.6,1.9,6.3,3.4,8c1.4,1.7,3.1,2.3,5.1,1.9c3.9,-.7,5.3,-4.8,4.1,-12.3c-1.2,-7.6,-4,-11,-8.4,-10.2c-2.2,.4,-3.7,1.8,-4.4,3.9c-.7,2.1,-.6,5,.2,8.7m19.7,-3.5c.7,5.4,.1,9.7,-1.7,12.9c-1.7,3.2,-4.6,5.1,-8.5,5.8c-4,.8,-7.3,.1,-10.2,-2.2c-2.8,-2.3,-5,-6.1,-6.4,-11.4c-1.3,-5.2,-1.2,-9.5,.5,-12.9c1.8,-3.4,5.1,-5.7,9.8,-6.6c4.6,-.9,8.4,0,11.3,2.6c2.9,2.5,4.6,6.5,5.2,11.8Z" class="g3"/>
<path d="M365.3,148.7c.8,-.1,1.1,-.1,1.9,-.2c1.6,0,2.8,-.5,3.5,-1.3c.7,-.9,1,-2.1,1,-3.7c-.1,-1.7,-.5,-2.9,-1.4,-3.5c-.8,-.7,-2.1,-1,-3.7,-.9c-.8,0,-1.1,0,-1.9,.1c.3,3.8,.4,5.7,.6,9.5m.4,5.2c.3,5.1,.5,7.6,.9,12.7c-2.6,.2,-3.9,.3,-6.5,.5c-1.3,-13,-2,-19.5,-3.3,-32.5c4,-.4,5.9,-.6,9.9,-.8c4.2,-.2,7.3,.5,9.3,2.1c2,1.5,3,4,3,7.2c0,4.2,-1.6,7.1,-4.8,8.8c3.1,5.6,4.5,8.5,7.1,14.3c-2.8,-.1,-4.1,0,-6.9,0c-2.4,-5,-3.6,-7.5,-6.2,-12.5c-1,.1,-1.5,.1,-2.5,.2Z" class="g3"/>
<path d="M385.7,166.2c.4,-13,.6,-19.6,1,-32.7c2.8,.1,4.3,.2,7.1,.4c-.8,13,-1.2,19.6,-2,32.6c-2.5,-.1,-3.7,-.2,-6.1,-.3Z" class="g3"/>
<path d="M412.4,150.5c4.6,.7,6.9,1.1,11.5,2.1c-1.4,6.6,-2.1,9.9,-3.4,16.4c-3.3,.6,-6.6,.6,-9.9,.1c-4,-.7,-6.9,-2.5,-8.8,-5.6c-1.9,-3.1,-2.7,-7.4,-2.2,-12.8c.5,-5.2,2.3,-9.2,5.5,-11.8c3.2,-2.7,7.5,-3.6,12.7,-2.8c3.2,.6,6.2,1.8,8.8,3.8c-1.4,1.7,-2.1,2.6,-3.4,4.3c-2,-1.4,-3.9,-2.4,-5.9,-2.7c-2.8,-.5,-5.2,.2,-7,2.1c-1.9,1.8,-3.1,4.5,-3.5,8c-.5,3.7,-.3,6.5,.5,8.6c.8,2.1,2.2,3.3,4.2,3.6c1.1,.2,2.2,.2,3.3,.2c.6,-3,.8,-4.5,1.3,-7.4c-1.8,-.3,-2.7,-.5,-4.5,-.8c.3,-2.1,.5,-3.2,.8,-5.3Z" class="g3"/>
<path d="M426.5,171.8c3.2,-12.7,4.7,-19,7.9,-31.7c2.8,.6,4.1,1,6.9,1.8c-3.5,12.6,-5.3,18.9,-8.8,31.5c-2.4,-.7,-3.6,-1,-6,-1.6Z" class="g3"/>
<path d="M462.7,184.6c-2.9,-1.4,-4.4,-2,-7.4,-3.3c-.4,-10.4,-.8,-15.7,-2.3,-26.3c-.1,0,-.2,0,-.3,-.1c-.2,1.9,-.6,3.8,-1.3,5.7c-2.4,6.8,-3.6,10.1,-6,16.9c-2.3,-.8,-3.5,-1.2,-5.8,-2c4,-12.4,6,-18.7,10,-31.1c3.6,1.1,5.4,1.7,8.9,3c1.6,10.6,2.1,15.9,2.5,26.3c.1,0,.2,0,.3,.1c.3,-1.6,.9,-3.4,1.7,-5.3c2.9,-6.6,4.3,-9.9,7.1,-16.4c2.6,1.1,3.9,1.7,6.5,2.9c-5.6,11.8,-8.3,17.7,-13.9,29.6Z" class="g3"/>
<path d="M487.4,182.3c.8,-3,1.3,-4.6,2.1,-7.6c.1,-.5,.4,-1.6,1,-3.5c.5,-1.8,.9,-3,1.1,-3.6c-.8,1,-1.8,2,-2.9,3.2c-1.1,1.2,-3.7,3.7,-7.6,7.9c2.5,1.4,3.8,2.1,6.3,3.6m-4.2,13.4c1.1,-3.2,1.6,-4.8,2.5,-8.1c-3.3,-2,-5,-3,-8.4,-4.9c-2.4,2.5,-3.5,3.8,-5.8,6.3c-2.4,-1.3,-3.5,-1.9,-5.9,-3c8.9,-10.3,13.6,-15.3,23.6,-24.8c3.7,2,5.5,3.1,9.2,5.3c-3.3,13.4,-5.2,20,-9.5,32.9c-2.2,-1.5,-3.4,-2.2,-5.7,-3.7Z" class="g3"/>
<path d="M491.6,201.2c7.4,-10.7,11.2,-16.1,18.7,-26.8c2.6,1.8,3.8,2.7,6.4,4.6c-6.6,8.8,-9.9,13.2,-16.4,22c3.1,2.3,4.6,3.5,7.6,6c-1.3,1.6,-2,2.5,-3.3,4.1c-5.1,-4.2,-7.7,-6.2,-13,-9.9Z" class="g3"/>
<path d="M285.9,555.2c1.1,-11.8,1.9,-17.6,3.9,-29c-.1,-.1,-.2,-.1,-.3,-.2c-.7,2.1,-1.4,3.9,-2.2,5.5c-4.1,7.6,-6.2,11.5,-10.3,19.1c-3.3,-1.7,-4.9,-2.6,-8.2,-4.6c6.6,-11.1,9.9,-16.7,16.5,-27.9c4.6,2.7,6.9,4,11.7,6.4c-1.8,10.5,-2.4,15.8,-3.3,26.6c.1,0,.1,.1,.2,.1c7.4,-7.9,10.9,-11.9,17.6,-20.3c4.9,2,7.4,2.9,12.4,4.5c-3.9,12.3,-5.8,18.5,-9.7,30.9c-3.6,-1.1,-5.4,-1.8,-9,-3c3,-8.3,4.5,-12.4,7.5,-20.7c.7,-1.7,1.4,-3.4,2.4,-5.1c-.1,0,-.2,-.1,-.3,-.1C307.7,546.6,304,551,296,559.6c-4.1,-1.6,-6.1,-2.5,-10.1,-4.4Z" class="g3"/>
<path d="M345.2,559.9c-.5,-3.1,-.7,-4.7,-1.2,-7.9c-.1,-.4,-.2,-1.6,-.4,-3.5c-.1,-1.9,-.2,-3.2,-.2,-3.8c-.5,1.2,-1.1,2.5,-1.8,3.9c-.8,1.4,-2.5,4.6,-5.6,9.5c3.7,.8,5.5,1.2,9.2,1.8m2.6,14.1c-.7,-3.4,-1.1,-5.1,-1.7,-8.5c-5.2,-.9,-7.9,-1.4,-13.1,-2.6c-1.8,3,-2.8,4.4,-4.8,7.3c-3.8,-.9,-5.7,-1.4,-9.5,-2.5c8.7,-11.1,12.7,-16.8,19.9,-28.5c4.5,1,6.7,1.5,11.2,2.2c2.3,13.6,3.9,20.4,7.8,33.8c-3.9,-.4,-5.9,-.6,-9.8,-1.2Z" class="g3"/>
<path d="M372.7,558.4c.9,.1,1.4,.1,2.3,.1c2.1,.1,3.7,-.3,4.6,-1.2c.9,-.8,1.4,-2,1.4,-3.6c-.1,-1.6,-.5,-2.8,-1.5,-3.5c-.9,-.7,-2.4,-1.1,-4.3,-1.1c-.9,0,-1.3,0,-2.2,-.1c-.1,3.8,-.2,5.7,-.3,9.4m-.2,5.2c-.2,5.1,-.3,7.6,-.4,12.6c-4,-.1,-5.9,-.2,-9.8,-.5c1,-13,1.5,-19.4,2.6,-32.4c4.3,.4,6.5,.5,10.9,.6c4.6,.1,8,.8,10.3,2.3c2.3,1.5,3.6,3.9,3.8,7.1c.2,4.1,-1.7,7.1,-5.9,8.8c3.9,5.6,6,8.4,10.4,13.8c-4.2,.3,-6.3,.3,-10.5,.4c-3.4,-5,-5,-7.5,-8.1,-12.6c-1.3,0,-2,0,-3.3,-.1Z" class="g3"/>
<path d="M431.8,570c-4.1,1.1,-6.2,1.5,-10.3,2.3c-4.5,-4.8,-6.6,-7.2,-10.7,-12.2c-1.3,1.2,-2,1.8,-3.3,2.9c.6,4.6,.9,6.8,1.5,11.4c-3.9,.5,-5.8,.7,-9.8,1.1c-1.1,-12.9,-1.7,-19.4,-2.9,-32.3c3.4,-.3,5,-.5,8.3,-.9c.9,6.3,1.3,9.5,2.2,15.9c1,-2.1,1.5,-3.2,2.4,-5.3c2.6,-4.9,3.8,-7.4,5.9,-12.4c3.5,-.7,5.3,-1,8.8,-1.9c-2.7,6.4,-4.2,9.7,-7.6,16c5.8,6.4,8.9,9.5,15.5,15.4Z" class="g3"/>
<path d="M459.2,561.3c-9,3.6,-13.6,5.1,-22.9,7.6c-3.3,-12.5,-5,-18.8,-8.4,-31.3c7.9,-2.2,11.8,-3.4,19.5,-6.5c.7,2,1.1,3,1.9,4.9c-4.7,1.8,-7,2.6,-11.7,4.2c.9,2.9,1.4,4.4,2.3,7.3c4.6,-1.4,6.8,-2.2,11.3,-4c.8,2,1.2,3,1.9,4.9c-4.6,1.8,-6.9,2.6,-11.6,4.1c1.1,3.4,1.7,5.1,2.7,8.5c5.3,-1.6,7.9,-2.6,13.1,-4.6c.8,2,1.1,3,1.9,4.9Z" class="g3"/>
<path d="M481.4,551.1c-3.5,1.9,-5.3,2.8,-9,4.5c-4.6,-9.8,-6.9,-14.7,-11.5,-24.5c-3.3,1.5,-4.9,2.3,-8.3,3.6c-.8,-1.9,-1.2,-2.9,-2,-4.9c9.6,-3.9,14.3,-6.3,23.4,-11.7c1.1,1.9,1.7,2.8,2.7,4.6c-3.1,1.9,-4.7,2.8,-7.9,4.5c5,9.5,7.6,14.3,12.6,23.9Z" class="g3"/>
<path d="M622.2,354.6C622.2,220.6,513.6,112,379.7,112c-134,0,-242.6,108.6,-242.6,242.6c0,133.9,108.6,242.5,242.6,242.5c133.9,0,242.5,-108.6,242.5,-242.5Z" class="g4"/>
<g fill="#FFFFFF" >
<use xlink:href="#f0_13" transform="matrix(86,0,0,86,176.4,454)"/>
<use xlink:href="#f0_1f" transform="matrix(86,0,0,86,235.2,454)"/>
<use xlink:href="#f0_1i" transform="matrix(86,0,0,86,313.4,454)"/>
<use xlink:href="#f0_1e" transform="matrix(86,0,0,86,379.1,454)"/>
<use xlink:href="#f0_15" transform="matrix(86,0,0,86,461.3,454)"/>
<use xlink:href="#f0_1i" transform="matrix(86,0,0,86,517.3,454)"/>
</g>
<text x="176.4" y="454" dx="0,-2,0,0,0,0" class="s1">CORNER </text>

</g>

<!-- Any embedded fonts defined here -->
<style type="text/css" ><![CDATA[

@font-face {
	font-family: OpenSansCondensed-Bold_i;
	src: url("fonts/OpenSansCondensed-Bold_i.woff") format("woff");
}

]]></style>

</svg>
